<?xml version="1.0" encoding="UTF-8"?>
<svg xmlns="http://www.w3.org/2000/svg" xmlns:xlink="http://www.w3.org/1999/xlink" width="16px" height="16px" viewBox="0 0 16 16" version="1.1">
<g id="surface1">
<rect x="0" y="0" width="16" height="16" style="fill:rgb(16.862745%,0%,0%);fill-opacity:1;stroke:none;"/>
<path style=" stroke:none;fill-rule:nonzero;fill:rgb(79.607843%,24.313725%,2.745098%);fill-opacity:1;" d="M 2 4 L 6 4 L 6 6 L 2 6 Z M 2 4 "/>
<path style=" stroke:none;fill-rule:nonzero;fill:rgb(79.607843%,24.313725%,2.745098%);fill-opacity:1;" d="M 10 4 L 14 4 L 14 6 L 10 6 Z M 10 4 "/>
<path style=" stroke:none;fill-rule:nonzero;fill:rgb(98.039216%,92.156863%,45.098039%);fill-opacity:1;" d="M 2 6 L 4 6 L 4 8 L 2 8 Z M 2 6 "/>
<path style=" stroke:none;fill-rule:nonzero;fill:rgb(98.039216%,92.156863%,45.098039%);fill-opacity:1;" d="M 12 6 L 14 6 L 14 8 L 12 8 Z M 12 6 "/>
<path style=" stroke:none;fill-rule:nonzero;fill:rgb(92.941176%,71.764706%,30.980392%);fill-opacity:1;" d="M 4 6 L 6 6 L 6 8 L 4 8 Z M 4 6 "/>
<path style=" stroke:none;fill-rule:nonzero;fill:rgb(92.941176%,71.764706%,30.980392%);fill-opacity:1;" d="M 10 6 L 12 6 L 12 8 L 10 8 Z M 10 6 "/>
<path style=" stroke:none;fill-rule:nonzero;fill:rgb(6.27451%,0%,0.392157%);fill-opacity:1;" d="M 2 0 L 4 0 L 4 2 L 2 2 Z M 2 0 "/>
<path style=" stroke:none;fill-rule:nonzero;fill:rgb(10.196078%,0%,0.392157%);fill-opacity:1;" d="M 12 2 L 14 2 L 14 4 L 12 4 Z M 12 2 "/>
<path style=" stroke:none;fill-rule:nonzero;fill:rgb(10.196078%,0%,0.784314%);fill-opacity:1;" d="M 0 10 L 2 10 L 2 12 L 0 12 Z M 0 10 "/>
<path style=" stroke:none;fill-rule:nonzero;fill:rgb(6.27451%,0%,0.392157%);fill-opacity:1;" d="M 0 12 L 2 12 L 2 14 L 0 14 Z M 0 12 "/>
<path style=" stroke:none;fill-rule:nonzero;fill:rgb(6.27451%,0%,0.392157%);fill-opacity:1;" d="M 14 8 L 16 8 L 16 12 L 14 12 Z M 14 8 "/>
<path style=" stroke:none;fill-rule:nonzero;fill:rgb(6.27451%,0%,0.392157%);fill-opacity:1;" d="M 12 12 L 16 12 L 16 14 L 12 14 Z M 12 12 "/>
<path style=" stroke:none;fill-rule:nonzero;fill:rgb(10.196078%,0.392157%,0%);fill-opacity:1;" d="M 14 6 L 16 6 L 16 8 L 14 8 Z M 14 6 "/>
<path style=" stroke:none;fill-rule:nonzero;fill:rgb(6.666667%,0%,0%);fill-opacity:1;" d="M 10 14 L 12 14 L 12 16 L 10 16 Z M 10 14 "/>
<path style=" stroke:none;fill-rule:nonzero;fill:rgb(6.27451%,0%,0%);fill-opacity:1;" d="M 8 6 L 10 6 L 10 8 L 8 8 Z M 8 6 "/>
<path style=" stroke:none;fill-rule:nonzero;fill:rgb(6.27451%,0%,0.392157%);fill-opacity:1;" d="M 0 14 L 4 14 L 4 16 L 0 16 Z M 0 14 "/>
<path style=" stroke:none;fill-rule:nonzero;fill:rgb(6.27451%,0%,0.392157%);fill-opacity:1;" d="M 0 2 L 2 2 L 2 6 L 0 6 Z M 0 2 "/>
<path style=" stroke:none;fill-rule:nonzero;fill:rgb(19.607843%,5.098039%,1.176471%);fill-opacity:1;" d="M 8 12 L 10 12 L 10 14 L 8 14 Z M 8 12 "/>
<path style=" stroke:none;fill-rule:nonzero;fill:rgb(19.607843%,5.098039%,1.176471%);fill-opacity:1;" d="M 6 2 L 8 2 L 8 4 L 6 4 Z M 6 2 "/>
<path style=" stroke:none;fill-rule:nonzero;fill:rgb(19.607843%,5.098039%,1.176471%);fill-opacity:1;" d="M 10.25 10 L 12 10 L 12 12 L 10.25 12 Z M 10.25 10 "/>
<path style=" stroke:none;fill-rule:nonzero;fill:rgb(6.27451%,0%,0.392157%);fill-opacity:1;" d="M 10 0 L 16 0 L 16 2 L 10 2 Z M 10 0 "/>
<path style=" stroke:none;fill-rule:nonzero;fill:rgb(6.27451%,0%,0.392157%);fill-opacity:1;" d="M 14 2 L 16 2 L 16 6 L 14 6 Z M 14 2 "/>
<path style=" stroke:none;fill-rule:nonzero;fill:rgb(58.039216%,26.27451%,26.27451%);fill-opacity:1;" d="M 5.75 10 L 10.25 10 L 10.25 12 L 5.75 12 Z M 5.75 10 "/>
</g>
</svg>
