<svg xmlns="http://www.w3.org/2000/svg" width="149" height="24" viewBox="0 0 149 24" fill="none">
<path d="M77.125 22.875V4.875H83.875V12.1875H86.125V4.875H92.875V22.875H86.125V15.5625H83.875V22.875H77.125ZM105.25 16.125V12.75H104.125V11.625H106.375V9.375H104.125V11.625H101.875V9.375H99.625V11.625H101.875V12.75H100.75V16.125H101.875V15H104.125V16.125H105.25ZM95.125 22.875V4.875H110.875V22.875H104.125V17.25H101.875V22.875H95.125ZM113.125 22.875V15H115.375V12.75H113.125V4.875H119.875V12.1875H122.125V4.875H128.875V12.75H126.625V15H128.875V22.875H122.125V15.5625H119.875V22.875H113.125ZM131.125 22.875V18.375H141.25V16.125H131.125V4.875H146.875V9.375H136.75V11.625H146.875V22.875H131.125Z" fill="#EDB74F"/>
<path d="M1.125 22.875V4.875H6.75V9.375H9V12.75H12.375V9.375H14.625V4.875H20.25V22.875H14.625V13.875H12.375V17.25H9V13.875H6.75V22.875H1.125ZM22.5 22.875V4.875H38.25V9.375H28.125V18.375H38.25V22.875H22.5ZM49.5 12.1875V9.375H47.25V12.1875H49.5ZM40.5 22.875V4.875H56.25V16.125H47.25V22.875H40.5ZM58.5 22.875V4.875H74.25V9.375H64.125V11.625H74.25V16.125H64.125V18.375H74.25V22.875H58.5Z" fill="black"/>
</svg>