<svg width="512" height="512" viewBox="0 0 512 512" fill="none" xmlns="http://www.w3.org/2000/svg">
<path d="M512 0H0V512H512V0Z" fill="#2B0000"/>
<path d="M64 128H192V192H64V128Z" fill="#CB3E07"/>
<path d="M320 128H448V192H320V128Z" fill="#CB3E07"/>
<path d="M64 192H128V256H64V192Z" fill="#FAEB73"/>
<path d="M384 192H448V256H384V192Z" fill="#FAEB73"/>
<path d="M128 192H192V256H128V192Z" fill="#EDB74F"/>
<path d="M320 192H384V256H320V192Z" fill="#EDB74F"/>
<path d="M64 0H128V64H64V0Z" fill="#100001"/>
<path d="M384 64H448V128H384V64Z" fill="#1A0001"/>
<path d="M0 320H64V384H0V320Z" fill="#1A0002"/>
<path d="M0 384H64V448H0V384Z" fill="#100001"/>
<path d="M448 256H512V384H448V256Z" fill="#100001"/>
<path d="M384 384H512V448H384V384Z" fill="#100001"/>
<path d="M448 192H512V256H448V192Z" fill="#1A0100"/>
<path d="M320 448H384V512H320V448Z" fill="#110000"/>
<path d="M256 192H320V256H256V192Z" fill="#100000"/>
<path d="M0 448H128V512H0V448Z" fill="#100001"/>
<path d="M0 64H64V192H0V64Z" fill="#100001"/>
<path d="M256 384H320V448H256V384Z" fill="#320D03"/>
<path d="M192 64H256V128H192V64Z" fill="#320D03"/>
<path d="M328 320H384V384H328V320Z" fill="#320D03"/>
<path d="M320 0H512V64H320V0Z" fill="#100001"/>
<path d="M448 64H512V192H448V64Z" fill="#100001"/>
<path d="M184 320H328V384H184V320Z" fill="#944343"/>
</svg>
